<svg id="그룹_10" data-name="그룹 10" xmlns="http://www.w3.org/2000/svg" width="82.58" height="89.935" viewBox="0 0 82.58 89.935">
  <g id="그룹_7" data-name="그룹 7" transform="translate(0 0)">
    <g id="그룹_4" data-name="그룹 4">
      <path id="패스_6" data-name="패스 6" d="M289.113,228.612h44.969V251.5H306.287a7.044,7.044,0,0,0-4.106,1.728,6.49,6.49,0,0,0-1.621,4v61.318H277.666V240.059A11.45,11.45,0,0,1,289.113,228.612Z" transform="translate(-277.666 -228.612)" fill="#fff"/>
    </g>
    <g id="그룹_11" data-name="그룹 11" transform="translate(26.164)">
      <path id="패스_6-2" data-name="패스 6-2" d="M335.309,318.547H290.34V295.655h27.8a7.066,7.066,0,0,0,4.1-1.726,6.47,6.47,0,0,0,1.625-4V228.612h22.89V307.1A11.448,11.448,0,0,1,335.309,318.547Z" transform="translate(-290.34 -228.612)" fill="#fff"/>
    </g>
  </g>
</svg>
